<svg width="82" height="82" viewBox="0 0 82 82" fill="none" xmlns="http://www.w3.org/2000/svg">
<g clip-path="url(#clip0_128_291)">
<path d="M22.9601 31.1408L11.1277 41L22.9601 50.8592C23.3525 51.1808 23.6773 51.5769 23.9159 52.0246C24.1545 52.4724 24.3021 52.963 24.3501 53.468C24.3982 53.9731 24.3458 54.4827 24.1959 54.9674C24.0461 55.4521 23.8018 55.9024 23.477 56.2922C23.1523 56.682 22.7536 57.0037 22.304 57.2387C21.8543 57.4737 21.3626 57.6174 20.8572 57.6614C20.3517 57.7054 19.8426 57.6489 19.3591 57.4952C18.8756 57.3415 18.4273 57.0936 18.0401 56.7658L2.66505 43.9533C2.23203 43.5925 1.88362 43.141 1.64453 42.6306C1.40543 42.1203 1.28149 41.5636 1.28149 41C1.28149 40.4364 1.40543 39.8797 1.64453 39.3693C1.88362 38.859 2.23203 38.4074 2.66505 38.0467L18.0401 25.2342C18.8244 24.5914 19.831 24.2846 20.8406 24.3807C21.8501 24.4767 22.7808 24.9679 23.4298 25.7471C24.0789 26.5263 24.3937 27.5304 24.3057 28.5407C24.2177 29.5509 23.734 30.4855 22.9601 31.1408ZM79.3351 38.0467L63.9601 25.2342C63.5728 24.9064 63.1245 24.6585 62.641 24.5047C62.1575 24.351 61.6484 24.2945 61.1429 24.3386C60.6375 24.3826 60.1458 24.5262 59.6961 24.7612C59.2465 24.9962 58.8478 25.3179 58.5231 25.7077C58.1984 26.0976 57.954 26.5478 57.8042 27.0325C57.6543 27.5173 57.6019 28.0268 57.65 28.5319C57.698 29.037 57.8456 29.5276 58.0842 29.9753C58.3228 30.4231 58.6476 30.8192 59.0401 31.1408L70.8724 41L59.0401 50.8592C58.6476 51.1808 58.3228 51.5769 58.0842 52.0246C57.8456 52.4724 57.698 52.963 57.65 53.468C57.6019 53.9731 57.6543 54.4827 57.8042 54.9674C57.954 55.4521 58.1984 55.9024 58.5231 56.2922C58.8478 56.682 59.2465 57.0037 59.6961 57.2387C60.1458 57.4737 60.6375 57.6174 61.1429 57.6614C61.6484 57.7054 62.1575 57.6489 62.641 57.4952C63.1245 57.3415 63.5728 57.0936 63.9601 56.7658L79.3351 43.9533C79.7681 43.5925 80.1165 43.141 80.3556 42.6306C80.5947 42.1203 80.7186 41.5636 80.7186 41C80.7186 40.4364 80.5947 39.8797 80.3556 39.3693C80.1165 38.859 79.7681 38.4074 79.3351 38.0467ZM52.5633 9.19935C52.0889 9.0268 51.585 8.94941 51.0807 8.97161C50.5763 8.99381 50.0812 9.11517 49.6237 9.32874C49.1662 9.54231 48.7553 9.84391 48.4144 10.2163C48.0735 10.5887 47.8093 11.0247 47.6369 11.4992L27.1369 67.8742C26.7894 68.832 26.8365 69.8887 27.2677 70.8119C27.699 71.735 28.4792 72.4492 29.4368 72.7974C29.8572 72.9526 30.3019 73.0318 30.7501 73.0312C31.5392 73.0314 32.3093 72.7886 32.9557 72.3359C33.6021 71.8832 34.0935 71.2424 34.3632 70.5008L54.8632 14.1258C55.0357 13.6513 55.1131 13.1475 55.0909 12.6431C55.0687 12.1387 54.9474 11.6436 54.7338 11.1861C54.5202 10.7286 54.2186 10.3177 53.8462 9.97682C53.4738 9.63593 53.0379 9.37174 52.5633 9.19935Z" fill="white"/>
</g>
<defs>
<clipPath id="clip0_128_291">
<rect width="82" height="82" fill="white"/>
</clipPath>
</defs>
</svg>
