<svg width="203" height="203" viewBox="0 0 203 203" fill="none" xmlns="http://www.w3.org/2000/svg">
<path d="M72.9531 38.0625C67.0717 38.0859 61.4378 40.4326 57.279 44.5915C53.1201 48.7503 50.7734 54.3842 50.75 60.2656C50.75 72.4583 60.7604 82.4688 72.9531 82.4688C85.1458 82.4688 95.1562 72.4583 95.1562 60.2656C95.1562 48.0729 85.1458 38.0625 72.9531 38.0625ZM130.047 38.0625C124.165 38.0859 118.532 40.4326 114.373 44.5915C110.214 48.7503 107.867 54.3842 107.844 60.2656C107.844 72.4583 117.854 82.4688 130.047 82.4688C142.24 82.4688 152.25 72.4583 152.25 60.2656C152.25 48.0729 142.24 38.0625 130.047 38.0625ZM72.9531 50.75C78.2819 50.75 82.4688 54.9369 82.4688 60.2656C82.4688 65.5944 78.2819 69.7812 72.9531 69.7812C67.6244 69.7812 63.4375 65.5944 63.4375 60.2656C63.4375 54.9369 67.6244 50.75 72.9531 50.75ZM130.047 50.75C135.376 50.75 139.562 54.9369 139.562 60.2656C139.562 65.5944 135.376 69.7812 130.047 69.7812C124.718 69.7812 120.531 65.5944 120.531 60.2656C120.531 54.9369 124.718 50.75 130.047 50.75ZM44.4062 76.125C30.45 76.125 19.0312 87.5438 19.0312 101.5C19.0312 108.561 22.0572 114.93 26.7643 119.542C22.4462 122.455 18.9062 126.381 16.4527 130.976C13.9992 135.572 12.7066 140.697 12.6875 145.906H25.375C25.375 135.325 33.8249 126.875 44.4062 126.875C54.9876 126.875 63.4375 135.325 63.4375 145.906H76.125C76.1059 140.697 74.8133 135.572 72.3598 130.976C69.9063 126.381 66.3663 122.455 62.0482 119.542C66.7553 114.93 69.7812 108.567 69.7812 101.5C69.7812 87.5438 58.3625 76.125 44.4062 76.125ZM76.125 145.906C72.1602 151.21 69.7812 157.877 69.7812 164.938H82.4688C82.4688 154.356 90.9186 145.906 101.5 145.906C112.081 145.906 120.531 154.356 120.531 164.938H133.219C133.208 158.076 130.983 151.402 126.875 145.906C124.718 143.033 122.117 140.577 119.142 138.573C123.849 133.961 126.875 127.598 126.875 120.531C126.875 106.575 115.456 95.1562 101.5 95.1562C87.5437 95.1562 76.125 106.575 76.125 120.531C76.125 127.592 79.151 133.961 83.858 138.573C80.8884 140.568 78.2744 143.047 76.125 145.906ZM126.875 145.906H139.562C139.562 135.325 148.012 126.875 158.594 126.875C169.175 126.875 177.625 135.325 177.625 145.906H190.312C190.293 140.697 189.001 135.572 186.547 130.976C184.094 126.381 180.554 122.455 176.236 119.542C180.943 114.93 183.969 108.567 183.969 101.5C183.969 87.5438 172.55 76.125 158.594 76.125C144.637 76.125 133.219 87.5438 133.219 101.5C133.219 108.561 136.245 114.93 140.952 119.542C136.634 122.455 133.094 126.381 130.64 130.976C128.187 135.572 126.894 140.697 126.875 145.906ZM44.4062 88.8125C51.4922 88.8125 57.0938 94.414 57.0938 101.5C57.0938 108.586 51.4922 114.188 44.4062 114.188C37.3203 114.188 31.7188 108.586 31.7188 101.5C31.7188 94.414 37.3203 88.8125 44.4062 88.8125ZM158.594 88.8125C165.68 88.8125 171.281 94.414 171.281 101.5C171.281 108.586 165.68 114.188 158.594 114.188C151.508 114.188 145.906 108.586 145.906 101.5C145.906 94.414 151.508 88.8125 158.594 88.8125ZM101.5 107.844C108.586 107.844 114.188 113.445 114.188 120.531C114.188 127.617 108.586 133.219 101.5 133.219C94.414 133.219 88.8125 127.617 88.8125 120.531C88.8125 113.445 94.414 107.844 101.5 107.844Z" fill="#083A5F"/>
</svg>
