<svg width="44" height="44" viewBox="0 0 44 44" fill="none" xmlns="http://www.w3.org/2000/svg">
<path d="M5.46948 14.555L19.7998 24.1085C20.3967 24.5068 21.0983 24.7193 21.8158 24.7193C22.5334 24.7193 23.235 24.5068 23.8319 24.1085L38.1622 14.555M9.10201 34.5339H34.5297C35.4931 34.5339 36.417 34.1512 37.0983 33.4699C37.7795 32.7887 38.1622 31.8648 38.1622 30.9014V12.7387C38.1622 11.7753 37.7795 10.8514 37.0983 10.1701C36.417 9.48891 35.4931 9.1062 34.5297 9.1062H9.10201C8.1386 9.1062 7.21466 9.48891 6.53342 10.1701C5.85219 10.8514 5.46948 11.7753 5.46948 12.7387V30.9014C5.46948 31.8648 5.85219 32.7887 6.53342 33.4699C7.21466 34.1512 8.1386 34.5339 9.10201 34.5339Z" stroke="white" stroke-width="3.63253" stroke-linecap="round" stroke-linejoin="round"/>
</svg>
