<svg width="36" height="36" viewBox="0 0 36 36" fill="none" xmlns="http://www.w3.org/2000/svg">
<path d="M17.9955 8.76426C12.8845 8.76426 8.75976 12.889 8.75976 18C8.75976 23.111 12.8845 27.2357 17.9955 27.2357C23.1065 27.2357 27.2312 23.111 27.2312 18C27.2312 12.889 23.1065 8.76426 17.9955 8.76426ZM17.9955 24.0026C14.6903 24.0026 11.9929 21.3052 11.9929 18C11.9929 14.6948 14.6903 11.9974 17.9955 11.9974C21.3007 11.9974 23.9981 14.6948 23.9981 18C23.9981 21.3052 21.3007 24.0026 17.9955 24.0026ZM27.6095 6.23355C26.4162 6.23355 25.4525 7.1972 25.4525 8.39051C25.4525 9.58381 26.4162 10.5475 27.6095 10.5475C28.8028 10.5475 29.7665 9.58832 29.7665 8.39051C29.7668 8.10715 29.7113 7.82651 29.603 7.56466C29.4947 7.3028 29.3358 7.06488 29.1355 6.86452C28.9351 6.66415 28.6972 6.50529 28.4353 6.39701C28.1735 6.28874 27.8929 6.23319 27.6095 6.23355ZM35.9987 18C35.9987 15.5143 36.0212 13.0512 35.8816 10.57C35.742 7.68803 35.0845 5.1303 32.9771 3.02288C30.8652 0.910954 28.312 0.258013 25.43 0.118418C22.9443 -0.0211759 20.4812 0.0013394 18 0.0013394C15.5143 0.0013394 13.0512 -0.0211759 10.57 0.118418C7.68803 0.258013 5.1303 0.915457 3.02288 3.02288C0.910954 5.13481 0.258013 7.68803 0.118418 10.57C-0.0211759 13.0557 0.0013394 15.5188 0.0013394 18C0.0013394 20.4812 -0.0211759 22.9488 0.118418 25.43C0.258013 28.312 0.915457 30.8697 3.02288 32.9771C5.13481 35.089 7.68803 35.742 10.57 35.8816C13.0557 36.0212 15.5188 35.9987 18 35.9987C20.4857 35.9987 22.9488 36.0212 25.43 35.8816C28.312 35.742 30.8697 35.0845 32.9771 32.9771C35.0891 30.8652 35.742 28.312 35.8816 25.43C36.0257 22.9488 35.9987 20.4857 35.9987 18ZM32.036 28.6182C31.7073 29.4377 31.311 30.0501 30.6761 30.6806C30.0411 31.3155 29.4332 31.7118 28.6137 32.0405C26.2451 32.9816 20.6208 32.77 17.9955 32.77C15.3702 32.77 9.74142 32.9816 7.37282 32.045C6.55327 31.7163 5.94085 31.32 5.31043 30.6851C4.6755 30.0501 4.27923 29.4422 3.95051 28.6227C3.01388 26.2496 3.22552 20.6253 3.22552 18C3.22552 15.3747 3.01388 9.74592 3.95051 7.37732C4.27923 6.55777 4.6755 5.94536 5.31043 5.31493C5.94536 4.6845 6.55327 4.28373 7.37282 3.95501C9.74142 3.01838 15.3702 3.23002 17.9955 3.23002C20.6208 3.23002 26.2496 3.01838 28.6182 3.95501C29.4377 4.28373 30.0501 4.68 30.6806 5.31493C31.3155 5.94986 31.7118 6.55777 32.0405 7.37732C32.9771 9.74592 32.7655 15.3747 32.7655 18C32.7655 20.6253 32.9771 26.2496 32.036 28.6182Z" fill="white"/>
</svg>
