<svg width="203" height="203" viewBox="0 0 203 203" fill="none" xmlns="http://www.w3.org/2000/svg">
<path d="M203 12.6875V114.881C201.15 113.031 199.167 111.379 197.053 109.925C194.938 108.472 192.691 107.15 190.312 105.96V63.4375H12.6875V164.938H120.531L107.844 177.625H0V12.6875H203ZM190.312 50.75V25.375H12.6875V50.75H190.312ZM139.86 145.312C139.86 140.95 140.686 136.886 142.338 133.12C143.99 129.353 146.237 126.082 149.078 123.307C151.92 120.531 155.224 118.318 158.99 116.666C162.757 115.014 166.854 114.221 171.281 114.287C175.709 114.287 179.839 115.113 183.671 116.765C187.504 118.417 190.841 120.663 193.683 123.505C196.524 126.346 198.771 129.716 200.423 133.615C202.075 137.514 202.901 141.644 202.901 146.005C202.901 150.301 202.108 154.332 200.522 158.098C198.936 161.865 196.722 165.202 193.881 168.109C191.039 171.017 187.768 173.264 184.068 174.85C180.367 176.436 176.303 177.262 171.876 177.328C168.704 177.328 165.598 176.898 162.559 176.039C159.519 175.18 156.644 173.891 153.935 172.173L134.012 192.097C132.492 193.617 131.005 195.136 129.551 196.656C128.097 198.176 126.578 199.663 124.992 201.117C124.331 201.711 123.703 202.174 123.108 202.504C122.514 202.835 121.721 203 120.729 203C119.011 203 117.492 202.339 116.17 201.018C114.848 199.696 114.188 198.176 114.188 196.458C114.188 195.533 114.353 194.773 114.683 194.178C115.014 193.583 115.476 192.923 116.071 192.196C117.458 190.61 118.912 189.09 120.432 187.636C121.952 186.182 123.505 184.696 125.091 183.176C128.461 179.806 131.765 176.469 135.003 173.165C138.241 169.861 141.578 166.523 145.014 163.153C143.362 160.444 142.107 157.603 141.248 154.629C140.389 151.655 139.926 148.549 139.86 145.312ZM152.547 146.501C152.547 149.012 153.01 151.358 153.935 153.539C154.86 155.719 156.149 157.636 157.801 159.288C159.453 160.94 161.369 162.228 163.55 163.153C165.73 164.078 168.109 164.541 170.687 164.541C173.264 164.541 175.709 164.045 178.021 163.054C180.334 162.063 182.449 160.642 184.365 158.792C186.282 156.942 187.735 154.893 188.727 152.646C189.718 150.4 190.279 147.955 190.412 145.312C190.412 142.933 189.916 140.653 188.925 138.472C187.934 136.292 186.546 134.309 184.762 132.525C182.978 130.741 180.995 129.353 178.814 128.362C176.634 127.371 174.321 126.842 171.876 126.776C169.299 126.776 166.854 127.305 164.541 128.362C162.228 129.419 160.18 130.906 158.396 132.822C156.611 134.739 155.191 136.82 154.133 139.067C153.076 141.314 152.547 143.792 152.547 146.501Z" fill="#083A5F"/>
</svg>
