<svg width="36" height="36" viewBox="0 0 36 36" fill="none" xmlns="http://www.w3.org/2000/svg">
<g clip-path="url(#clip0_141_111)">
<path d="M32.9913 0.136963H3.00798C1.42262 0.136963 0.136475 1.42311 0.136475 3.00847V32.9918C0.136475 34.5772 1.42262 35.8633 3.00798 35.8633H32.9913C34.5767 35.8633 35.8628 34.5772 35.8628 32.9918V3.00847C35.8628 1.42311 34.5767 0.136963 32.9913 0.136963ZM32.9913 33.0052C12.9935 33.0007 2.99458 32.9963 2.99458 32.9918C2.99905 12.994 3.00351 2.99507 3.00798 2.99507C23.0058 2.99954 33.0047 3.004 33.0047 3.00847C33.0003 23.0063 32.9958 33.0052 32.9913 33.0052ZM5.43291 13.5299H10.7338V30.5803H5.43291V13.5299ZM8.08559 11.1987C9.77812 11.1987 11.1581 9.82327 11.1581 8.12627C11.1581 7.72279 11.0786 7.32326 10.9242 6.95049C10.7698 6.57772 10.5435 6.23901 10.2582 5.95371C9.97285 5.6684 9.63414 5.44209 9.26137 5.28768C8.8886 5.13327 8.48907 5.0538 8.08559 5.0538C7.68211 5.0538 7.28258 5.13327 6.90981 5.28768C6.53704 5.44209 6.19833 5.6684 5.91303 5.95371C5.62772 6.23901 5.40141 6.57772 5.247 6.95049C5.09259 7.32326 5.01312 7.72279 5.01312 8.12627C5.00866 9.82327 6.38412 11.1987 8.08559 11.1987ZM19.3528 22.1444C19.3528 19.9204 19.777 17.7679 22.5324 17.7679C25.2476 17.7679 25.2878 20.309 25.2878 22.2873V30.5803H30.5843V21.2289C30.5843 16.6381 29.5929 13.1056 24.2294 13.1056C21.6527 13.1056 19.9244 14.5213 19.2143 15.861H19.1429V13.5299H14.0564V30.5803H19.3528V22.1444Z" fill="white"/>
</g>
<defs>
<clipPath id="clip0_141_111">
<rect width="36" height="36" fill="white"/>
</clipPath>
</defs>
</svg>
