<svg width="82" height="82" viewBox="0 0 82 82" fill="none" xmlns="http://www.w3.org/2000/svg">
<path d="M63.7425 39.2933V26.7986C63.7425 14.2577 53.5437 4.0564 41.0003 4.0564C28.4568 4.0564 18.2581 14.2551 18.2581 26.7986V39.2933H12.9204V77.9435H69.0802V39.2933H63.7425ZM27.2268 26.7986C27.2268 19.2033 33.4025 13.0251 41.0003 13.0251C48.5981 13.0251 54.7737 19.2008 54.7737 26.7986V39.2933H27.2268V26.7986ZM46.8223 69.0747H35.1757L38.3071 59.678C37.2911 59.1789 36.4348 58.4058 35.8349 57.4459C35.2349 56.486 34.9152 55.3775 34.9118 54.2455C34.9118 52.6314 35.553 51.0835 36.6943 49.9421C37.8356 48.8008 39.3836 48.1596 40.9977 48.1596C42.6118 48.1596 44.1598 48.8008 45.3011 49.9421C46.4425 51.0835 47.0837 52.6314 47.0837 54.2455C47.0837 56.6338 45.6948 58.6786 43.6909 59.678L46.8223 69.0747Z" fill="white"/>
</svg>
