<svg width="180" height="180" viewBox="0 0 180 180" fill="none" xmlns="http://www.w3.org/2000/svg">
<g clip-path="url(#clip0_139_41)">
<path d="M22.5 123.75V101.25H0V0H135V22.5H157.5V67.5H146.25V33.75H33.75V112.5H101.25V123.75H22.5ZM22.5 90V22.5H123.75V11.25H11.25V90H22.5ZM45 101.25V78.75H56.25V101.25H45ZM67.5 101.25V56.25H78.75V101.25H67.5ZM90 101.25V67.5H101.25V101.25H90ZM146.25 78.75C150.879 78.75 155.244 79.6289 159.346 81.3867C163.447 83.1445 167.021 85.5469 170.068 88.5938C173.115 91.6406 175.547 95.2441 177.363 99.4043C179.18 103.564 180.059 107.93 180 112.5C180 117.188 179.121 121.553 177.363 125.596C175.605 129.639 173.203 133.213 170.156 136.318C167.109 139.424 163.506 141.855 159.346 143.613C155.186 145.371 150.82 146.25 146.25 146.25C142.734 146.25 139.307 145.723 135.967 144.668C132.627 143.613 129.551 142.061 126.738 140.01L88.3301 178.33C87.2168 179.443 85.8984 180 84.375 180C82.8516 180 81.5332 179.443 80.4199 178.33C79.3066 177.217 78.75 175.898 78.75 174.375C78.75 172.852 79.3066 171.533 80.4199 170.42L118.74 132.012C116.689 129.199 115.137 126.123 114.082 122.783C113.027 119.443 112.5 116.016 112.5 112.5C112.5 107.871 113.379 103.506 115.137 99.4043C116.895 95.3027 119.297 91.7285 122.344 88.6816C125.391 85.6348 128.965 83.2031 133.066 81.3867C137.168 79.5703 141.562 78.6914 146.25 78.75ZM146.25 135C149.355 135 152.256 134.414 154.951 133.242C157.646 132.07 160.049 130.459 162.158 128.408C164.268 126.357 165.879 123.984 166.992 121.289C168.105 118.594 168.691 115.664 168.75 112.5C168.75 109.395 168.164 106.494 166.992 103.799C165.82 101.104 164.209 98.7012 162.158 96.5918C160.107 94.4824 157.734 92.8711 155.039 91.7578C152.344 90.6445 149.414 90.0586 146.25 90C143.145 90 140.244 90.5859 137.549 91.7578C134.854 92.9297 132.451 94.541 130.342 96.5918C128.232 98.6426 126.621 101.016 125.508 103.711C124.395 106.406 123.809 109.336 123.75 112.5C123.75 115.605 124.336 118.506 125.508 121.201C126.68 123.896 128.291 126.299 130.342 128.408C132.393 130.518 134.766 132.129 137.461 133.242C140.156 134.355 143.086 134.941 146.25 135Z" fill="#083A5F"/>
</g>
<defs>
<clipPath id="clip0_139_41">
<rect width="180" height="180" fill="white"/>
</clipPath>
</defs>
</svg>
