<svg width="203" height="203" viewBox="0 0 203 203" fill="none" xmlns="http://www.w3.org/2000/svg">
<g clip-path="url(#clip0_139_21)">
<path d="M33.8333 50.75H169.167V135.333H33.8333M169.167 152.25C173.653 152.25 177.956 150.468 181.129 147.295C184.301 144.123 186.083 139.82 186.083 135.333V50.75C186.083 46.2634 184.301 41.9606 181.129 38.7881C177.956 35.6156 173.653 33.8333 169.167 33.8333H33.8333C24.4446 33.8333 16.9167 41.3613 16.9167 50.75V135.333C16.9167 139.82 18.699 144.123 21.8714 147.295C25.0439 150.468 29.3468 152.25 33.8333 152.25H0V169.167H203V152.25H169.167Z" fill="#083A5F"/>
<path d="M147.25 19C141.081 19 136 24.0813 136 30.25V97.75C136 103.919 141.081 109 147.25 109H184.75C190.919 109 196 103.919 196 97.75V30.25C196 24.0813 190.919 19 184.75 19H147.25ZM147.25 26.5H184.75C186.831 26.5 188.5 28.1687 188.5 30.25V97.75C188.5 99.8313 186.831 101.5 184.75 101.5H147.25C145.169 101.5 143.5 99.8313 143.5 97.75V30.25C143.5 28.1687 145.169 26.5 147.25 26.5ZM166 90.25C163.937 90.25 162.25 91.9375 162.25 94C162.25 96.0625 163.937 97.75 166 97.75C168.063 97.75 169.75 96.0625 169.75 94C169.75 91.9375 168.063 90.25 166 90.25Z" fill="#083A5F"/>
</g>
<defs>
<clipPath id="clip0_139_21">
<rect width="203" height="203" fill="white"/>
</clipPath>
</defs>
</svg>
