<svg width="321" height="86" viewBox="0 0 321 86" fill="none" xmlns="http://www.w3.org/2000/svg">
<path d="M17.6843 64.9903C14.4492 64.9903 11.3461 64.7593 8.37512 64.2971C5.47014 63.8349 3.06032 63.2738 1.14567 62.6135V53.5025C3.39043 54.3607 5.86627 55.021 8.57319 55.4831C11.2801 55.9453 13.855 56.1764 16.2978 56.1764C19.995 56.1764 22.6359 55.8462 24.2205 55.186C25.805 54.5258 26.5973 53.2384 26.5973 51.3237C26.5973 49.9372 26.1021 48.8479 25.1118 48.0556C24.1875 47.2633 22.768 46.5371 20.8533 45.8769C19.0047 45.2167 16.6279 44.4244 13.7229 43.5001C10.95 42.5758 8.54017 41.5854 6.49348 40.5291C4.44679 39.4067 2.86225 37.9872 1.73988 36.2706C0.617496 34.554 0.0563062 32.3093 0.0563062 29.5364C0.0563062 25.2449 1.60783 21.9438 4.71088 19.633C7.81393 17.2562 12.7986 16.0678 19.6649 16.0678C22.3718 16.0678 24.9467 16.2659 27.3895 16.662C29.8324 17.0581 31.9121 17.5533 33.6287 18.1475V27.1595C31.78 26.4333 29.7333 25.8721 27.4886 25.476C25.3098 25.0798 23.2631 24.8818 21.3485 24.8818C17.9153 24.8818 15.3075 25.1789 13.5249 25.7731C11.8083 26.3673 10.95 27.5557 10.95 29.3383C10.95 31.1869 11.8413 32.5074 13.6239 33.2996C15.4725 34.0259 18.4105 35.0492 22.4379 36.3697C26.1351 37.492 29.0731 38.6804 31.2519 39.9349C33.4306 41.1893 34.9821 42.7078 35.9064 44.4904C36.8968 46.207 37.3919 48.4517 37.3919 51.2247C37.3919 55.8462 35.7084 59.3124 32.3412 61.6232C28.9741 63.868 24.0884 64.9903 17.6843 64.9903ZM70.2927 64.9903C62.1059 64.9903 55.7678 62.9767 51.2783 58.9493C46.7888 54.9219 44.544 48.7488 44.544 40.43C44.544 32.9035 46.4586 26.9615 50.2879 22.604C54.1172 18.2465 59.9272 16.0678 67.7178 16.0678C74.8482 16.0678 80.196 17.9494 83.7612 21.7127C87.3925 25.41 89.2081 30.1966 89.2081 36.0726V44.7875H54.8435C55.3717 49.343 57.0222 52.4791 59.7951 54.1957C62.5681 55.9123 66.7935 56.7706 72.4714 56.7706C74.8482 56.7706 77.2911 56.5395 79.7999 56.0773C82.3088 55.6152 84.4875 55.021 86.3361 54.2947V62.2174C84.2234 63.1417 81.7806 63.8349 79.0076 64.2971C76.3007 64.7593 73.3957 64.9903 70.2927 64.9903ZM54.8435 37.7561H79.7009V34.488C79.7009 31.2529 78.8096 28.7441 77.027 26.9615C75.2444 25.1129 72.2404 24.1885 68.0149 24.1885C62.9972 24.1885 59.5311 25.2779 57.6164 27.4566C55.7678 29.6354 54.8435 33.0685 54.8435 37.7561ZM117.642 64.9903C112.624 64.9903 108.861 63.6699 106.352 61.029C103.909 58.3221 102.687 54.6578 102.687 50.0363V25.476H95.7551V17.0581H102.687V6.26349L113.383 2.99538V17.0581H125.861L125.168 25.476H113.383V49.4421C113.383 52.149 114.01 54.0636 115.265 55.186C116.519 56.2424 118.566 56.7706 121.405 56.7706C123.187 56.7706 125.069 56.4404 127.05 55.7802V63.4058C124.475 64.4622 121.339 64.9903 117.642 64.9903ZM152.241 64.9903C146.629 64.9903 142.305 63.4388 139.268 60.3358C136.297 57.2327 134.811 52.6772 134.811 46.6691V17.0581H145.606V46.6691C145.606 50.1683 146.464 52.7432 148.181 54.3938C149.898 56.0443 152.538 56.8696 156.104 56.8696C158.745 56.8696 161.187 56.3744 163.432 55.3841C165.677 54.3938 167.625 53.0733 169.275 51.4227V17.0581H179.971V64H170.166L169.671 59.1474C167.559 60.7979 165.05 62.1844 162.145 63.3068C159.24 64.4291 155.939 64.9903 152.241 64.9903ZM192.56 85.3912V17.0581H201.869L202.464 21.7127C204.576 19.7981 206.887 18.3786 209.396 17.4543C211.905 16.53 214.876 16.0678 218.309 16.0678C225.043 16.0678 230.292 17.9164 234.055 21.6137C237.819 25.2449 239.7 31.2859 239.7 39.7368C239.7 48.1877 237.753 54.5258 233.857 58.7512C229.962 62.9106 224.647 64.9903 217.913 64.9903C212.235 64.9903 207.382 63.6699 203.355 61.029V85.3912H192.56ZM215.14 56.8696C224.251 56.8696 228.807 51.1256 228.807 39.6378C228.807 34.0919 227.783 30.1636 225.737 27.8528C223.69 25.476 220.257 24.2876 215.437 24.2876C210.617 24.2876 206.59 25.9381 203.355 29.2393V52.7102C204.874 53.9646 206.557 54.988 208.406 55.7802C210.32 56.5065 212.565 56.8696 215.14 56.8696Z" fill="#083A5F"/>
<path d="M260.104 64.9903C254.69 64.9903 250.069 64.2311 246.24 62.7126V53.6015C247.824 54.2617 249.673 54.8229 251.785 55.2851C253.964 55.6812 256.11 55.8793 258.223 55.8793C262.646 55.8793 265.716 54.988 267.433 53.2054C269.215 51.3567 270.107 48.4187 270.107 44.3914V0.22244H280.901V46.174C280.901 52.248 279.152 56.9026 275.653 60.1377C272.219 63.3728 267.037 64.9903 260.104 64.9903ZM292.851 64V17.0581H302.754L303.349 22.505C305.593 21.0525 308.267 19.732 311.37 18.5436C314.473 17.3552 317.543 16.53 320.58 16.0678V24.2876C318.732 24.6177 316.718 25.1129 314.539 25.7731C312.427 26.3673 310.413 27.0605 308.498 27.8528C306.584 28.579 304.966 29.3383 303.646 30.1306V64H292.851Z" fill="#E59115"/>
</svg>
