<svg width="162" height="54" viewBox="0 0 162 54" fill="none" xmlns="http://www.w3.org/2000/svg">
<path d="M4.46749 32.9267C5.00189 33.7283 5.61264 34.4727 6.29972 35.1598C6.98681 35.8468 7.76933 36.4003 8.64727 36.8202C9.56339 37.2019 10.5558 37.3928 11.6247 37.3928C12.9225 37.3928 13.934 37.1065 14.6593 36.5339C15.4227 35.9232 15.8044 35.1025 15.8044 34.0719C15.8044 33.1558 15.4991 32.3923 14.8883 31.7816C14.3157 31.1327 13.5714 30.5983 12.6553 30.1784C11.7392 29.7203 10.7658 29.3004 9.73516 28.9187C8.59002 28.4607 7.42578 27.9263 6.24247 27.3155C5.09732 26.6666 4.12395 25.8459 3.32234 24.8534C2.55891 23.8228 2.1772 22.5441 2.1772 21.0172C2.1772 19.4522 2.578 18.1543 3.3796 17.1237C4.21938 16.0931 5.28818 15.3296 6.58601 14.8334C7.92201 14.3372 9.29619 14.0891 10.7085 14.0891C12.1209 14.0891 13.4378 14.3181 14.6593 14.7762C15.9189 15.2342 17.0259 15.845 17.9802 16.6084C18.9345 17.3718 19.6788 18.2498 20.2132 19.2422L16.5488 21.5898C15.8235 20.5973 14.9074 19.7766 13.8004 19.1277C12.7316 18.4788 11.5101 18.1543 10.136 18.1543C9.18167 18.1543 8.36099 18.3643 7.6739 18.7842C6.98681 19.2041 6.64327 19.853 6.64327 20.7309C6.64327 21.418 6.91047 22.0287 7.44487 22.5631C7.97927 23.0976 8.66636 23.5747 9.50613 23.9946C10.3459 24.4145 11.2239 24.8153 12.14 25.197C13.6668 25.8077 15.0601 26.4757 16.3198 27.201C17.5794 27.8881 18.5719 28.7279 19.2971 29.7203C20.0606 30.7128 20.4423 31.9915 20.4423 33.5566C20.4423 35.8468 19.6025 37.7554 17.923 39.2823C16.2816 40.8091 14.1058 41.5726 11.3956 41.5726C9.63973 41.5726 8.05561 41.2672 6.64327 40.6565C5.23092 40.0075 4.02852 39.1869 3.03606 38.1944C2.08177 37.2019 1.35651 36.1904 0.86028 35.1598L4.46749 32.9267ZM36.6644 41.5726C34.2215 41.5726 32.0457 41 30.1371 39.8549C28.2667 38.6715 26.7971 37.0492 25.7283 34.988C24.6977 32.9267 24.1823 30.541 24.1823 27.8308C24.1823 25.0825 24.7167 22.6777 25.7855 20.6164C26.8925 18.5551 28.4194 16.9519 30.3661 15.8068C32.351 14.6616 34.6413 14.0891 37.237 14.0891C39.8327 14.0891 42.0466 14.6426 43.8788 15.7495C45.7493 16.8183 47.1807 18.3643 48.1731 20.3874C49.1656 22.4105 49.6618 24.8153 49.6618 27.6018C49.6618 27.869 49.6427 28.1553 49.6046 28.4607C49.6046 28.7279 49.6046 28.8996 49.6046 28.976H27.1025V25.0825H45.9974L44.1651 27.7163C44.2796 27.5254 44.3942 27.2392 44.5087 26.8574C44.6232 26.4376 44.6805 26.094 44.6805 25.8268C44.6805 24.2618 44.356 22.9067 43.7071 21.7615C43.0963 20.6164 42.2375 19.7194 41.1305 19.0705C40.0235 18.4215 38.7257 18.0971 37.237 18.0971C35.4811 18.0971 33.9733 18.4788 32.7137 19.2422C31.4922 19.9675 30.5379 21.0363 29.8508 22.4486C29.2019 23.8228 28.8584 25.5214 28.8202 27.5445C28.8202 29.6058 29.1446 31.3617 29.7936 32.8122C30.4425 34.2627 31.3968 35.3697 32.6564 36.1331C33.9161 36.8966 35.4429 37.2783 37.237 37.2783C39.0311 37.2783 40.6152 36.8966 41.9894 36.1331C43.3635 35.3315 44.5278 34.1291 45.4821 32.5259L49.2038 34.8735C47.8296 37.0874 46.0928 38.767 43.9934 39.9121C41.9321 41.0191 39.4891 41.5726 36.6644 41.5726ZM51.932 14.6616H65.1012V18.9559H51.932V14.6616ZM56.2263 5.50048H60.8069V41H56.2263V5.50048ZM74.2758 30.6937C74.2758 32.7931 74.7529 34.4154 75.7072 35.5606C76.6615 36.7057 78.0547 37.2783 79.887 37.2783C81.223 37.2783 82.3872 37.0111 83.3797 36.4767C84.4103 35.9041 85.1928 35.1216 85.7272 34.1291C86.2998 33.1367 86.5861 31.9915 86.5861 30.6937V14.6616H91.1667V41H86.5861V36.8775C85.7081 38.4425 84.6202 39.6258 83.3224 40.4274C82.0246 41.1909 80.4977 41.5726 78.7418 41.5726C75.9935 41.5726 73.7986 40.6374 72.1572 38.767C70.5159 36.8966 69.6952 34.3963 69.6952 31.2663V14.6616H74.2758V30.6937ZM104.072 53.5966H99.4913V14.6616H104.072V53.5966ZM126.116 27.8308C126.116 30.6555 125.524 33.0985 124.341 35.1598C123.158 37.221 121.574 38.8051 119.589 39.9121C117.642 41.0191 115.466 41.5726 113.061 41.5726C110.886 41.5726 108.958 41.0191 107.278 39.9121C105.637 38.8051 104.339 37.221 103.385 35.1598C102.469 33.0985 102.011 30.6555 102.011 27.8308C102.011 24.968 102.469 22.525 103.385 20.5019C104.339 18.4406 105.637 16.8565 107.278 15.7495C108.958 14.6426 110.886 14.0891 113.061 14.0891C115.466 14.0891 117.642 14.6426 119.589 15.7495C121.574 16.8565 123.158 18.4406 124.341 20.5019C125.524 22.525 126.116 24.968 126.116 27.8308ZM121.478 27.8308C121.478 25.8077 121.058 24.09 120.218 22.6777C119.417 21.2653 118.329 20.1965 116.955 19.4713C115.619 18.746 114.13 18.3834 112.489 18.3834C111.153 18.3834 109.836 18.746 108.538 19.4713C107.24 20.1965 106.171 21.2653 105.332 22.6777C104.492 24.09 104.072 25.8077 104.072 27.8308C104.072 29.8539 104.492 31.5716 105.332 32.984C106.171 34.3963 107.24 35.4651 108.538 36.1904C109.836 36.9156 111.153 37.2783 112.489 37.2783C114.13 37.2783 115.619 36.9156 116.955 36.1904C118.329 35.4651 119.417 34.3963 120.218 32.984C121.058 31.5716 121.478 29.8539 121.478 27.8308Z" fill="white"/>
<path d="M124.302 46.9548C124.722 47.6037 125.332 48.0999 126.134 48.4434C126.897 48.8252 127.794 49.016 128.825 49.016C129.703 49.016 130.562 48.6152 131.402 47.8136C132.279 47.0502 132.718 45.7333 132.718 43.8629V0.919892H137.299V44.4354C137.299 46.0005 137.089 47.3556 136.669 48.5007C136.288 49.6459 135.715 50.6001 134.951 51.3636C134.188 52.127 133.253 52.6805 132.146 53.024C131.077 53.4057 129.875 53.5966 128.539 53.5966C127.546 53.5966 126.592 53.4248 125.676 53.0813C124.722 52.7759 123.92 52.3942 123.271 51.9361C122.584 51.5163 122.088 51.1155 121.782 50.7337L124.302 46.9548ZM150.768 14.6616V41H146.187V14.6616H150.768ZM158.727 19.7003C158.116 19.2422 157.562 18.9178 157.066 18.7269C156.57 18.4979 155.94 18.3834 155.177 18.3834C154.032 18.3834 153.135 18.6697 152.486 19.2422C151.837 19.8148 151.379 20.5973 151.111 21.5898C150.882 22.5822 150.768 23.7083 150.768 24.968H148.707C148.707 22.8685 149.069 21.0172 149.795 19.414C150.558 17.7726 151.531 16.4748 152.715 15.5205C153.898 14.5662 155.1 14.0891 156.322 14.0891C157.276 14.0891 158.154 14.2227 158.956 14.4899C159.795 14.7189 160.559 15.196 161.246 15.9213L158.727 19.7003Z" fill="#E59115"/>
</svg>
