<svg width="180" height="180" viewBox="0 0 180 180" fill="none" xmlns="http://www.w3.org/2000/svg">
<path fill-rule="evenodd" clip-rule="evenodd" d="M22.5 22.5H138.75V41.25H131.25V30H30V116.25H110.201V123.75H22.5V22.5ZM135 71.25C137.984 71.25 140.845 70.0647 142.955 67.955C145.065 65.8452 146.25 62.9837 146.25 60C146.25 57.0163 145.065 54.1548 142.955 52.045C140.845 49.9353 137.984 48.75 135 48.75C132.016 48.75 129.155 49.9353 127.045 52.045C124.935 54.1548 123.75 57.0163 123.75 60C123.75 62.9837 124.935 65.8452 127.045 67.955C129.155 70.0647 132.016 71.25 135 71.25ZM142.616 78.7875C147.487 78.7875 151.342 80.9775 153.866 84.36C156.225 87.5288 157.222 91.4475 157.447 95.0663C157.668 98.7783 157.162 102.498 155.959 106.016C154.834 109.279 152.932 112.654 150 114.968V151.875C150.003 153.288 149.473 154.651 148.517 155.692C147.561 156.732 146.248 157.375 144.84 157.492C143.431 157.608 142.03 157.191 140.916 156.322C139.801 155.452 139.055 154.196 138.825 152.801L133.987 123.75H132.87L127.402 152.91C127.143 154.286 126.379 155.516 125.261 156.359C124.142 157.202 122.75 157.598 121.355 157.468C119.961 157.339 118.665 156.694 117.72 155.659C116.776 154.625 116.252 153.276 116.25 151.875V98.3738C115.5 99.5161 114.76 100.665 114.03 101.82L113.737 102.281L113.662 102.401L113.644 102.435C113.138 103.246 112.434 103.916 111.599 104.38C110.763 104.844 109.822 105.087 108.866 105.086H90.1162C88.6244 105.086 87.1937 104.494 86.1388 103.439C85.0839 102.384 84.4912 100.953 84.4912 99.4613C84.4912 97.9694 85.0839 96.5387 86.1388 95.4838C87.1937 94.4289 88.6244 93.8363 90.1162 93.8363H105.78C106.691 92.4263 107.891 90.5963 109.151 88.7588C110.464 86.8425 111.911 84.8138 113.201 83.2238C113.827 82.4475 114.529 81.6375 115.234 80.9738C115.579 80.6475 116.059 80.2238 116.644 79.8488C117.676 79.1711 118.881 78.8041 120.116 78.7913L142.616 78.7875Z" fill="#083A5F"/>
</svg>
