<svg width="203" height="203" viewBox="0 0 203 203" fill="none" xmlns="http://www.w3.org/2000/svg">
<path d="M138.378 118.417C139.055 112.834 139.563 107.252 139.563 101.5C139.563 95.7484 139.055 90.1659 138.378 84.5834H166.968C168.321 89.9967 169.167 95.6638 169.167 101.5C169.167 107.336 168.321 113.003 166.968 118.417M123.407 165.445C128.482 156.056 132.373 145.906 135.08 135.333H160.032C151.837 149.444 138.836 160.133 123.407 165.445ZM121.293 118.417H81.7076C80.8618 112.834 80.3543 107.252 80.3543 101.5C80.3543 95.7484 80.8618 90.0813 81.7076 84.5834H121.293C122.054 90.0813 122.646 95.7484 122.646 101.5C122.646 107.252 122.054 112.834 121.293 118.417ZM101.5 168.828C94.4797 158.678 88.8126 147.429 85.3447 135.333H117.656C114.188 147.429 108.521 158.678 101.5 168.828ZM67.6668 67.6667H42.9684C51.0787 53.5177 64.0702 42.8118 79.5084 37.555C74.4334 46.9438 70.6272 57.0938 67.6668 67.6667ZM42.9684 135.333H67.6668C70.6272 145.906 74.4334 156.056 79.5084 165.445C64.1026 160.13 51.1294 149.439 42.9684 135.333ZM36.0326 118.417C34.6793 113.003 33.8334 107.336 33.8334 101.5C33.8334 95.6638 34.6793 89.9967 36.0326 84.5834H64.6217C63.9451 90.1659 63.4376 95.7484 63.4376 101.5C63.4376 107.252 63.9451 112.834 64.6217 118.417M101.5 34.0871C108.521 44.2371 114.188 55.5713 117.656 67.6667H85.3447C88.8126 55.5713 94.4797 44.2371 101.5 34.0871ZM160.032 67.6667H135.08C132.432 57.1907 128.512 47.0782 123.407 37.555C138.971 42.8838 151.912 53.6259 160.032 67.6667ZM101.5 16.9167C54.7255 16.9167 16.9167 54.9792 16.9167 101.5C16.9167 123.933 25.8282 145.447 41.6906 161.309C49.5449 169.164 58.8693 175.394 69.1314 179.645C79.3936 183.896 90.3924 186.083 101.5 186.083C123.933 186.083 145.447 177.172 161.31 161.309C177.172 145.447 186.083 123.933 186.083 101.5C186.083 90.3924 183.896 79.3935 179.645 69.1314C175.394 58.8693 169.164 49.5449 161.31 41.6906C153.455 33.8363 144.131 27.6059 133.869 23.3552C123.607 19.1045 112.608 16.9167 101.5 16.9167Z" fill="#083A5F"/>
</svg>
